<?xml version="1.0" standalone="no"?>
<!DOCTYPE svg PUBLIC "-//W3C//DTD SVG 20010904//EN"
 "http://www.w3.org/TR/2001/REC-SVG-20010904/DTD/svg10.dtd">
<svg version="1.0" xmlns="http://www.w3.org/2000/svg"
 width="384.000000pt" height="384.000000pt" viewBox="0 0 384.000000 384.000000"
 preserveAspectRatio="xMidYMid meet">
<metadata>
Created by potrace 1.11, written by Peter Selinger 2001-2013
</metadata>
<g transform="translate(0.000000,384.000000) scale(0.100000,-0.100000)"
fill="#000000" stroke="none">
<path d="M1787 3170 c-318 -58 -573 -287 -669 -602 -22 -71 -22 -86 -25 -653
-3 -556 -3 -581 16 -611 25 -40 77 -64 140 -64 l51 0 0 593 c0 559 1 598 20
671 29 115 73 189 165 281 122 123 254 178 425 178 228 0 434 -128 538 -333
71 -141 72 -150 72 -807 l0 -583 51 0 c63 0 115 24 140 64 19 30 19 56 17 621
-3 588 -3 590 -27 660 -52 157 -124 270 -239 375 -105 98 -213 157 -358 195
-71 19 -250 28 -317 15z"/>
<path d="M1760 990 c0 -312 3 -327 69 -353 53 -22 109 -22 162 0 66 26 69 41
69 353 l0 270 -150 0 -150 0 0 -270z"/>
</g>
</svg>
