<?xml version="1.0" standalone="no"?>
<!DOCTYPE svg PUBLIC "-//W3C//DTD SVG 20010904//EN"
 "http://www.w3.org/TR/2001/REC-SVG-20010904/DTD/svg10.dtd">
<svg version="1.0" xmlns="http://www.w3.org/2000/svg"
 width="490.000000pt" height="490.000000pt" viewBox="0 0 490.000000 490.000000"
 preserveAspectRatio="xMidYMid meet">
<metadata>
Created by potrace 1.11, written by Peter Selinger 2001-2013
</metadata>
<g transform="translate(0.000000,490.000000) scale(0.100000,-0.100000)"
fill="#000000" stroke="none">
<path d="M0 2450 l0 -2450 2450 0 2450 0 0 2450 0 2450 -2450 0 -2450 0 0
-2450z m2299 2306 c-3 -3 -25 -6 -49 -8 -26 -2 -45 -8 -45 -15 0 -6 -4 -15 -9
-20 -5 -5 -6 -3 -2 5 4 6 2 12 -3 12 -6 0 -11 -6 -11 -13 0 -8 -6 -14 -12 -15
-89 -9 -105 -14 -127 -39 -13 -16 -31 -28 -40 -29 -21 -1 -71 -22 -71 -29 0
-4 6 -3 13 0 6 4 3 -1 -8 -10 -11 -9 -32 -19 -47 -22 -15 -3 -25 -9 -22 -14 3
-5 1 -9 -5 -9 -5 0 -12 -9 -16 -19 -3 -11 -12 -18 -19 -15 -7 3 -20 -4 -31
-15 -15 -18 -16 -23 -4 -38 10 -15 10 -16 0 -6 -15 13 -64 -3 -55 -18 3 -5 0
-9 -5 -9 -6 0 -11 -10 -11 -22 0 -12 -3 -18 -6 -15 -13 13 -43 -14 -49 -43 -4
-17 -10 -28 -14 -26 -14 9 -33 -12 -40 -45 -4 -21 -15 -38 -28 -44 -25 -11
-45 -48 -37 -68 5 -13 -10 -32 -31 -39 -5 -1 -9 -12 -7 -23 2 -16 0 -17 -8 -5
-8 12 -10 10 -11 -10 -1 -14 -2 -29 -4 -35 -1 -5 -3 -19 -4 -30 -1 -17 -3 -18
-11 -5 -8 13 -10 12 -10 -3 0 -10 -4 -16 -9 -13 -5 3 -11 -1 -15 -9 -3 -8 0
-15 7 -15 8 0 8 -3 -1 -9 -8 -5 -15 -26 -16 -47 -5 -70 -6 -74 -21 -74 -22 0
-36 -44 -38 -117 -1 -35 -6 -63 -11 -63 -4 0 -6 -9 -3 -19 3 -13 0 -18 -8 -15
-7 3 -16 0 -21 -7 -4 -7 -3 -10 4 -5 6 3 14 2 17 -4 4 -6 3 -10 -2 -9 -24 4
-29 -7 -31 -68 -2 -38 -6 -70 -9 -73 -3 -3 -3 36 -1 86 4 64 11 99 23 118 10
15 24 61 31 102 7 41 22 87 32 102 11 15 25 51 31 81 6 29 20 65 31 79 12 14
25 45 31 69 6 24 15 43 20 43 5 0 20 21 33 48 13 26 33 56 45 66 12 11 21 25
21 32 0 16 27 47 158 180 56 57 107 104 112 104 5 0 25 14 43 30 19 17 39 30
44 30 6 0 28 12 49 26 21 15 61 33 88 40 26 7 55 19 65 27 9 8 23 17 31 20 18
7 115 9 109 3z m308 -2 c-3 -3 -12 -4 -19 -1 -8 3 -5 6 6 6 11 1 17 -2 13 -5z
m123 -19 c10 -9 38 -21 62 -26 24 -6 59 -21 78 -34 19 -12 46 -26 60 -30 14
-4 40 -21 58 -36 18 -16 36 -29 40 -29 4 0 38 -29 76 -65 38 -36 73 -65 77
-65 5 0 11 -11 15 -25 3 -14 10 -25 15 -25 9 0 80 -90 114 -144 10 -17 27 -37
36 -43 9 -7 20 -28 23 -46 4 -19 15 -42 26 -52 11 -10 27 -43 36 -73 8 -31 24
-66 34 -79 10 -13 21 -47 25 -76 4 -28 17 -74 30 -102 14 -31 28 -88 35 -150
6 -55 20 -136 31 -180 19 -76 20 -115 17 -875 l-3 -795 -22 -42 c-13 -23 -23
-51 -23 -61 0 -10 -11 -34 -25 -53 -14 -19 -32 -49 -40 -66 -8 -18 -20 -33
-26 -33 -5 0 -22 -12 -37 -27 -26 -27 -70 -54 -142 -89 -27 -13 -75 -17 -223
-22 -160 -4 -192 -8 -210 -23 -22 -17 -22 -19 -27 -491 l-5 -474 -27 -33 c-16
-18 -28 -37 -28 -42 0 -28 -109 -123 -180 -157 -69 -34 -81 -37 -161 -36 -72
0 -91 4 -113 22 -15 11 -39 23 -54 27 -30 6 -111 81 -154 140 -15 21 -30 54
-33 74 -3 20 -12 59 -20 87 -12 41 -15 128 -15 441 0 390 0 390 -23 424 l-23
34 -185 7 c-192 6 -193 6 -295 61 -42 23 -164 137 -164 154 0 6 -13 30 -30 54
-24 36 -29 53 -28 94 l2 50 3 -47 c3 -33 10 -52 23 -61 11 -8 17 -17 13 -20
-3 -4 1 -7 9 -7 8 0 15 -8 15 -18 0 -40 4 -53 13 -47 6 4 9 1 8 -7 -2 -8 4
-12 15 -10 15 3 22 -13 18 -40 -1 -9 30 -27 43 -25 5 1 14 -7 20 -18 15 -28
28 -36 49 -31 9 2 17 0 17 -6 0 -6 9 -8 20 -5 11 3 18 1 15 -3 -8 -13 26 -42
41 -36 7 3 16 1 19 -4 3 -6 78 -10 168 -10 198 -1 210 -2 220 -18 4 -7 19 -10
32 -8 19 4 22 1 18 -12 -4 -10 -8 -12 -11 -4 -2 7 -8 9 -13 6 -6 -3 -6 -11 2
-20 6 -7 15 -12 18 -9 4 2 8 -2 8 -10 0 -8 -4 -12 -8 -9 -4 2 -11 -1 -15 -7
-4 -8 -3 -9 4 -5 6 3 16 -3 22 -15 7 -12 8 -19 2 -15 -5 3 -12 -3 -15 -14 -3
-11 -1 -23 4 -26 6 -4 6 -10 0 -17 -12 -16 -12 -29 2 -46 9 -11 9 -15 -2 -19
-11 -4 -11 -6 0 -13 12 -8 11 -11 -1 -19 -8 -5 -10 -10 -4 -10 7 0 14 -7 17
-14 4 -11 1 -13 -10 -9 -12 5 -14 3 -7 -8 13 -21 14 -80 0 -72 -6 4 -5 -1 3
-10 8 -10 11 -20 8 -24 -4 -3 -2 -12 4 -19 7 -8 7 -14 -1 -19 -6 -3 -8 -11 -5
-16 4 -5 0 -9 -7 -9 -9 0 -9 -3 2 -10 12 -8 13 -13 3 -29 -8 -13 -9 -22 -3
-26 6 -4 8 -11 5 -16 -4 -5 -1 -9 5 -9 7 0 5 -7 -4 -16 -20 -19 -20 -19 0 -38
8 -9 11 -16 6 -16 -5 0 -9 -26 -7 -57 1 -34 -3 -61 -9 -65 -7 -5 -4 -8 7 -8
17 0 17 -1 2 -16 -15 -15 -15 -18 0 -34 12 -13 13 -20 5 -25 -9 -6 -9 -10 1
-16 10 -6 11 -9 2 -9 -7 0 -13 -5 -13 -11 0 -5 3 -8 8 -5 4 2 6 -14 4 -36 -4
-32 -2 -39 9 -32 11 6 12 5 3 -7 -13 -16 -15 -49 -2 -49 4 0 7 -4 5 -9 -1 -5
13 -25 31 -45 18 -20 30 -41 27 -46 -3 -5 4 -14 15 -20 11 -6 20 -8 20 -5 0 3
6 0 14 -7 8 -7 11 -17 8 -22 -3 -5 2 -7 11 -3 11 4 14 2 11 -7 -5 -13 13 -22
61 -32 11 -3 22 -9 24 -15 2 -7 7 -6 12 2 7 11 9 10 9 -3 0 -9 5 -20 12 -24 6
-4 8 -3 5 3 -3 5 0 10 8 10 8 0 12 -4 9 -9 -5 -8 9 -10 71 -10 62 -1 75 2 75
16 0 8 5 18 12 22 7 5 8 3 3 -7 -7 -11 -6 -12 7 -2 8 7 18 10 21 6 4 -3 9 2
13 11 5 13 9 14 20 5 10 -8 14 -8 14 0 0 6 3 10 8 10 20 -3 32 3 32 16 0 9 10
19 23 24 24 10 58 46 51 55 -2 3 -1 4 2 1 15 -11 39 31 43 78 1 4 7 7 15 7 8
0 17 12 22 28 10 36 13 262 3 256 -4 -2 -11 0 -14 6 -4 6 -1 9 7 8 10 -2 13
22 13 114 0 64 -3 114 -6 112 -4 -2 -11 0 -14 6 -4 6 -1 9 7 8 9 -2 13 10 14
39 0 25 -4 43 -10 43 -8 0 -8 3 0 8 5 4 10 30 10 57 0 28 -5 53 -10 57 -8 5
-7 8 1 8 7 0 11 14 10 35 -1 19 -5 35 -9 35 -5 0 -8 5 -8 11 0 5 4 8 10 4 12
-8 8 58 -5 67 -7 5 -6 8 0 8 6 0 12 14 13 31 6 78 9 79 204 79 216 1 228 2
228 14 0 6 5 4 10 -4 8 -12 10 -12 10 -1 0 8 3 11 7 8 10 -11 32 13 27 28 -4
9 1 12 13 11 10 -2 27 1 38 7 11 6 24 10 29 9 5 -2 6 5 2 14 -5 14 -4 15 8 5
11 -9 16 -6 25 21 8 23 14 29 22 21 15 -15 37 6 42 37 2 12 9 25 16 29 7 5 13
12 14 17 1 5 5 8 9 7 8 -3 20 32 23 70 2 15 5 31 8 34 4 3 2 14 -3 24 -7 12
-6 20 2 25 7 4 8 3 4 -4 -4 -7 -3 -12 2 -12 12 0 33 56 25 64 -4 3 -2 6 4 6 8
0 9 23 4 73 -1 5 -5 6 -10 2 -5 -3 -13 -1 -16 5 -4 6 -3 9 2 8 4 -2 9 1 10 6
1 5 7 13 15 17 10 7 10 9 0 9 -10 0 -10 5 -2 20 6 11 7 20 2 20 -4 0 -8 9 -8
19 0 11 3 18 6 16 3 -2 5 7 5 20 0 13 -3 21 -7 19 -4 -2 -3 9 2 25 5 19 4 33
-3 40 -8 8 -7 11 2 11 11 0 11 3 1 15 -7 8 -9 15 -4 15 5 0 9 15 9 34 0 19 -4
32 -8 29 -5 -3 -4 4 2 16 8 14 8 21 1 21 -8 0 -8 6 0 20 6 11 7 20 2 20 -9 0
-8 53 3 69 3 6 1 11 -6 11 -8 0 -7 5 2 17 8 9 9 14 4 11 -6 -4 -11 2 -11 12 0
10 5 16 10 13 5 -4 6 -1 1 7 -12 19 -12 69 0 62 6 -3 4 2 -4 11 -10 13 -10 17
-1 17 10 0 10 3 0 15 -10 12 -10 15 1 16 11 0 11 2 1 6 -10 4 -10 8 -1 19 9
11 8 14 -2 14 -10 0 -10 3 -2 11 9 9 6 16 -9 29 -15 12 -18 19 -9 24 6 4 10 4
9 -1 -2 -4 1 -9 7 -10 11 -3 12 37 2 54 -4 6 -3 15 3 18 8 5 7 11 -1 21 -9 11
-9 14 0 14 7 0 9 4 6 10 -9 15 -15 51 -7 46 4 -2 7 20 7 50 0 43 -3 53 -14 49
-11 -4 -10 0 3 14 13 15 14 20 4 24 -11 5 -10 7 1 15 7 5 9 12 4 15 -10 6 -10
48 1 65 4 7 2 12 -4 12 -8 0 -8 6 0 20 7 13 7 20 1 20 -7 0 -7 9 -1 25 7 18 6
25 -3 26 -9 0 -9 2 1 6 10 4 10 8 1 19 -9 11 -9 14 1 14 10 0 10 3 0 15 -10
12 -10 15 1 15 9 0 10 3 2 11 -6 6 -8 23 -3 45 5 21 4 34 -2 34 -6 0 -4 8 3
17 12 15 12 16 -4 10 -15 -5 -16 -4 -7 13 15 27 12 34 -7 19 -15 -13 -15 -12
-5 8 16 29 15 38 -1 25 -10 -9 -13 -5 -11 21 1 17 -2 39 -7 49 -7 13 -6 18 3
19 8 0 9 2 2 5 -6 2 -8 19 -6 36 4 24 2 29 -9 23 -11 -7 -12 -6 -3 6 9 12 10
30 5 125 0 14 -5 22 -11 19 -5 -3 -10 1 -10 11 0 13 -3 14 -13 5 -10 -8 -14
-7 -14 4 0 8 4 12 8 9 4 -2 10 0 14 6 3 5 -1 10 -9 10 -10 0 -13 6 -9 17 4 9
2 14 -3 11 -5 -4 -10 21 -11 55 -1 34 -7 63 -12 65 -5 2 -7 10 -4 19 4 9 2 14
-3 11 -15 -8 -39 25 -40 55 -3 62 -4 68 -14 62 -6 -3 -7 1 -4 9 4 11 0 16 -15
16 -12 0 -21 3 -22 8 -8 83 -21 118 -40 107 -10 -7 -30 29 -27 46 2 7 -8 18
-22 25 -14 7 -31 29 -38 48 -9 24 -17 33 -28 29 -9 -3 -14 0 -12 8 2 8 -3 13
-12 11 -8 -2 -12 0 -8 3 9 9 -20 67 -30 62 -7 -4 -53 38 -52 48 0 3 -3 5 -6 4
-3 0 -21 15 -40 35 -19 19 -34 33 -34 31 0 -3 -9 4 -21 16 -12 12 -29 19 -39
16 -11 -3 -17 0 -14 7 8 22 -13 36 -58 39 -25 1 -44 5 -42 8 2 4 -4 16 -14 28
-12 14 -31 21 -62 23 -29 2 -51 10 -64 23 -10 11 -22 19 -27 18 -5 -2 -9 1 -9
6 0 6 -12 12 -27 14 -16 2 -9 3 15 2 24 -1 51 -10 62 -20z m-325 -160 c17 0
35 4 42 8 6 4 14 4 17 -1 6 -11 67 -9 85 2 9 6 12 5 8 -1 -4 -7 10 -11 36 -12
77 -4 91 -7 100 -28 10 -22 35 -33 75 -33 13 0 35 -12 50 -27 15 -15 35 -29
44 -30 10 -2 34 -19 54 -38 33 -33 46 -40 67 -36 5 1 6 -3 2 -9 -3 -5 3 -20
14 -32 12 -12 21 -18 21 -14 0 5 7 3 15 -4 8 -7 13 -15 10 -19 -2 -4 5 -14 16
-21 10 -8 19 -20 19 -27 0 -14 34 -35 43 -27 3 3 4 -2 3 -13 -6 -36 18 -69 47
-64 5 1 6 -3 2 -9 -3 -5 -1 -10 4 -10 6 0 10 -3 10 -7 -6 -34 39 -102 55 -85
4 4 7 2 6 -3 -1 -6 -2 -12 -1 -15 1 -3 4 -23 5 -45 2 -21 8 -41 15 -43 6 -2 9
-8 5 -13 -8 -13 10 -11 25 4 10 8 12 8 7 0 -9 -17 5 -94 16 -87 7 4 7 0 0 -12
-11 -22 -5 -44 17 -62 14 -12 14 -13 -2 -8 -11 3 -16 2 -12 -4 3 -6 13 -10 21
-10 9 0 12 -5 8 -12 -5 -8 -2 -9 11 -4 13 5 15 3 8 -6 -13 -18 -7 -106 9 -126
11 -13 11 -14 -1 -7 -11 6 -13 3 -7 -16 6 -22 11 -70 15 -146 1 -26 4 -31 19
-26 14 5 13 3 -3 -10 -18 -15 -18 -16 -2 -17 9 0 17 -4 17 -10 0 -5 -7 -7 -16
-3 -14 5 -15 3 -5 -16 7 -12 16 -19 21 -16 5 3 12 0 16 -6 4 -7 3 -9 -4 -5 -6
3 -13 -3 -17 -14 -3 -11 -11 -20 -16 -20 -6 0 -3 -7 5 -16 18 -18 20 -30 6
-39 -5 -3 -7 0 -4 8 3 8 1 17 -4 21 -11 6 -9 -24 3 -44 14 -22 13 -81 -1 -76
-13 5 -13 -19 1 -31 4 -4 5 -3 2 3 -3 6 0 11 7 11 8 0 12 -6 9 -14 -3 -7 -11
-13 -17 -13 -7 0 -13 -7 -13 -15 0 -12 3 -12 16 -2 12 10 13 9 7 -1 -4 -7 -2
-20 6 -30 12 -15 11 -16 -4 -3 -13 9 -18 10 -18 2 0 -7 -5 -9 -11 -5 -8 4 -8
0 0 -15 7 -11 8 -21 4 -21 -4 0 -2 -5 5 -12 9 -9 7 -14 -6 -25 -16 -12 -16
-13 2 -6 16 5 18 3 13 -12 -7 -16 -5 -16 10 -4 16 13 17 12 5 -2 -7 -9 -10
-24 -6 -33 3 -9 1 -16 -6 -16 -6 0 -9 4 -5 9 3 5 0 13 -6 16 -7 5 -9 -1 -7
-16 2 -15 9 -23 18 -21 13 2 13 1 0 -10 -15 -13 -24 -62 -9 -53 4 3 7 -4 6
-15 -1 -13 -6 -19 -15 -15 -7 2 -10 0 -7 -5 9 -14 35 -13 35 2 0 6 3 8 7 5 9
-10 -33 -48 -43 -39 -4 4 -4 1 0 -6 6 -10 11 -10 21 -2 10 8 15 8 21 -1 4 -7
3 -10 -2 -7 -5 3 -15 0 -22 -8 -7 -8 -8 -14 -2 -14 5 0 10 -5 10 -11 0 -5 -4
-8 -8 -5 -4 2 -8 -8 -7 -24 0 -15 4 -26 8 -23 5 3 6 12 3 20 -3 8 -2 12 3 8 5
-3 11 -2 14 2 2 5 2 1 -1 -7 -3 -8 -5 -24 -6 -36 -1 -11 -8 -29 -16 -39 -8
-10 -13 -21 -12 -24 30 -50 36 -72 18 -65 -8 3 -12 -8 -12 -31 0 -30 3 -34 19
-29 13 4 17 2 13 -5 -4 -6 -14 -11 -23 -11 -11 0 -9 -5 7 -18 20 -16 21 -20 7
-25 -10 -4 -14 -2 -11 7 3 7 -2 13 -10 13 -13 0 -13 -5 4 -31 11 -17 25 -30
31 -28 6 1 8 -2 4 -8 -3 -6 -10 -8 -15 -5 -4 3 -11 -3 -15 -13 -12 -27 -13
-92 -2 -99 6 -4 7 -1 2 7 -6 9 -4 11 5 5 10 -6 10 -11 -3 -20 -18 -13 -24 -30
-7 -20 14 9 12 -8 -2 -24 -11 -11 -8 -12 12 -6 17 4 21 3 12 -3 -8 -5 -14 -13
-14 -17 0 -4 6 -12 14 -16 10 -7 10 -9 0 -9 -7 0 -11 -4 -7 -9 3 -5 1 -12 -4
-15 -5 -3 -7 8 -6 24 1 17 -1 30 -5 30 -4 0 -7 -18 -6 -40 1 -43 5 -47 24 -28
7 7 12 8 12 4 0 -4 -10 -17 -22 -27 l-23 -20 24 7 c16 4 21 3 17 -5 -4 -6 -14
-11 -22 -11 -10 0 -13 -8 -10 -26 3 -15 8 -29 12 -33 4 -3 4 2 1 11 -4 12 -2
15 9 11 10 -4 12 -9 4 -18 -6 -7 -8 -20 -4 -29 3 -9 1 -16 -6 -16 -6 0 -9 4
-5 9 3 5 2 12 -3 15 -4 2 -8 -6 -8 -20 0 -18 4 -23 16 -19 10 3 10 1 -3 -9
-23 -18 -23 -17 -9 -43 10 -18 9 -24 -5 -33 -15 -8 -13 -9 10 -6 15 3 27 0 27
-6 0 -5 -6 -8 -14 -5 -8 3 -20 -2 -28 -11 -11 -13 -11 -15 2 -7 12 7 13 6 3
-6 -6 -8 -14 -33 -16 -56 -5 -37 -35 -88 -43 -73 -2 3 -13 -3 -24 -13 -12 -10
-18 -23 -14 -29 4 -7 3 -8 -4 -4 -7 4 -12 3 -12 -2 0 -5 -6 -9 -12 -9 -51 -2
-136 -17 -147 -27 -10 -7 -13 -8 -8 0 4 8 -17 11 -71 10 -58 -1 -76 -5 -74
-14 1 -8 -2 -11 -8 -7 -6 3 -8 10 -5 14 2 5 -6 9 -20 9 -15 0 -22 -5 -18 -12
3 -6 0 -6 -8 1 -18 17 -53 17 -43 1 6 -10 4 -10 -7 -2 -19 15 -111 16 -102 0
5 -8 3 -8 -8 0 -20 17 -92 13 -107 -6 -11 -13 -11 -13 -6 1 4 12 -1 17 -20 17
-16 0 -23 -5 -19 -12 4 -6 0 -5 -9 2 -17 14 -53 13 -77 -2 -10 -6 -12 -5 -7 2
5 8 -5 11 -33 10 -26 -1 -38 -5 -34 -12 5 -7 2 -7 -8 0 -19 15 -161 15 -152 0
5 -8 2 -7 -8 0 -20 17 -92 13 -107 -6 -11 -13 -11 -13 -6 1 4 12 -1 17 -20 17
-16 0 -23 -5 -19 -12 5 -8 3 -8 -8 0 -19 15 -161 15 -152 0 5 -8 3 -8 -8 0
-19 14 -72 17 -64 3 4 -6 -2 -5 -14 3 -17 11 -25 11 -42 0 -12 -8 -18 -9 -15
-3 4 6 -5 9 -21 7 -16 -1 -27 -8 -25 -15 1 -7 -2 -10 -8 -6 -6 3 -8 11 -5 16
6 9 -10 11 -88 13 -20 1 -37 5 -37 9 0 13 -34 44 -56 51 -13 4 -25 20 -31 39
-6 22 -15 32 -28 32 -15 0 -19 6 -17 23 2 12 -2 22 -8 22 -6 0 -8 5 -5 11 8
12 12 109 5 109 -3 0 -4 48 -3 107 1 60 2 123 3 141 0 17 3 32 8 32 4 0 9 -89
10 -198 l4 -197 29 -44 c41 -63 103 -113 152 -122 55 -11 1459 -11 1513 0 52
10 139 81 153 125 7 23 26 466 22 531 0 6 -3 276 -6 600 -5 650 -12 784 -44
845 -11 22 -25 67 -30 101 -6 34 -19 71 -29 83 -10 12 -24 41 -31 66 -7 25
-21 54 -31 65 -10 11 -24 37 -31 58 -7 20 -23 44 -36 52 -13 9 -23 22 -23 30
0 31 -243 275 -274 275 -7 0 -23 11 -35 24 -12 13 -44 29 -69 36 -26 6 -63 21
-82 33 -32 20 -48 22 -210 22 -154 0 -179 -2 -204 -18 -15 -10 -51 -25 -79
-34 -29 -8 -64 -26 -80 -39 -16 -13 -32 -24 -37 -24 -4 0 -27 -16 -50 -35 -47
-40 -77 -48 -36 -10 14 13 26 31 26 38 0 8 6 15 13 14 32 -1 48 4 42 13 -4 6
-3 10 2 9 20 -3 34 2 28 11 -3 6 -1 10 5 10 6 0 9 3 7 8 -3 4 7 8 21 9 15 1
36 4 47 6 11 3 24 6 28 6 5 1 5 6 1 13 -4 7 -3 8 5 4 6 -4 14 0 19 11 4 10 18
19 32 20 14 0 46 2 73 4 26 1 47 7 47 13 0 8 3 8 8 1 4 -6 21 -10 37 -10z
m-477 -235 c-7 -11 -21 -23 -30 -26 -10 -3 -23 -15 -29 -27 -7 -12 -22 -33
-35 -47 -55 -60 -83 -98 -97 -132 -9 -21 -20 -38 -26 -38 -5 0 -17 -21 -27
-47 -9 -27 -25 -57 -35 -68 -9 -11 -20 -38 -24 -60 -4 -22 -17 -58 -30 -80
-13 -24 -27 -75 -35 -125 -6 -47 -18 -100 -26 -119 -22 -52 -36 -293 -32 -554
2 -130 -1 -237 -5 -237 -12 0 -7 762 6 778 6 8 6 12 -2 12 -7 0 -9 5 -6 10 4
6 11 7 17 4 6 -4 6 1 -1 14 -15 29 -14 40 2 17 13 -17 14 -17 21 6 9 31 20
124 20 171 1 26 4 34 12 27 8 -6 14 -4 18 6 3 9 2 13 -3 10 -5 -3 -12 -1 -16
4 -3 6 3 8 15 6 11 -2 20 -1 21 3 5 45 31 143 37 138 9 -10 31 15 25 30 -3 8
0 14 7 14 7 0 10 7 7 15 -4 8 -1 17 5 21 7 4 6 9 -3 15 -10 6 -8 9 9 9 13 0
20 4 17 10 -4 6 1 7 12 3 16 -6 17 -5 3 13 -8 10 -10 16 -6 12 5 -4 19 14 32
40 13 26 24 40 24 32 0 -12 4 -11 15 4 8 10 12 22 10 27 -3 4 0 11 6 15 8 4 7
9 -2 15 -10 6 -10 9 -2 9 6 0 15 -5 18 -10 6 -10 39 15 41 32 1 4 2 12 3 16 0
4 15 13 31 19 17 6 30 15 29 20 -1 4 -1 17 0 28 1 18 3 18 12 3 7 -12 6 -23
-3 -38z m1292 -134 c0 -2 -8 -10 -17 -17 -16 -13 -17 -12 -4 4 13 16 21 21 21
13z m-1913 -798 c-3 -7 -5 -2 -5 12 0 14 2 19 5 13 2 -7 2 -19 0 -25z m2118
12 c3 -5 1 -10 -4 -10 -6 0 -11 5 -11 10 0 6 2 10 4 10 3 0 8 -4 11 -10z
m-2118 -62 c-3 -7 -5 -2 -5 12 0 14 2 19 5 13 2 -7 2 -19 0 -25z m0 -70 c-3
-7 -5 -2 -5 12 0 14 2 19 5 13 2 -7 2 -19 0 -25z m0 -50 c-3 -7 -5 -2 -5 12 0
14 2 19 5 13 2 -7 2 -19 0 -25z m0 -65 c-3 -10 -5 -2 -5 17 0 19 2 27 5 18 2
-10 2 -26 0 -35z m0 -55 c-3 -7 -5 -2 -5 12 0 14 2 19 5 13 2 -7 2 -19 0 -25z
m0 -70 c-3 -8 -6 -5 -6 6 -1 11 2 17 5 13 3 -3 4 -12 1 -19z m2268 12 c-3 -5
-12 -10 -18 -10 -7 0 -6 4 3 10 19 12 23 12 15 0z m-2268 -62 c-3 -7 -5 -2 -5
12 0 14 2 19 5 13 2 -7 2 -19 0 -25z m2117 1 c-3 -5 -11 -9 -17 -8 -8 0 -8 2
1 6 10 4 10 8 0 21 -12 15 -11 16 4 3 10 -7 15 -17 12 -22z m-2117 -71 c-3 -7
-5 -2 -5 12 0 14 2 19 5 13 2 -7 2 -19 0 -25z m0 -50 c-3 -7 -5 -2 -5 12 0 14
2 19 5 13 2 -7 2 -19 0 -25z m2123 -32 c0 -2 -7 -7 -16 -10 -8 -3 -12 -2 -9 4
6 10 25 14 25 6z m-2123 -38 c-3 -7 -5 -2 -5 12 0 14 2 19 5 13 2 -7 2 -19 0
-25z m2264 -25 c13 -16 12 -17 -3 -4 -10 7 -18 15 -18 17 0 8 8 3 21 -13z
m-2264 -25 c-3 -7 -5 -2 -5 12 0 14 2 19 5 13 2 -7 2 -19 0 -25z m196 -79 c-3
-123 -13 -127 -13 -6 0 54 3 97 8 97 4 0 6 -41 5 -91z m-196 -6 c-3 -10 -5 -2
-5 17 0 19 2 27 5 18 2 -10 2 -26 0 -35z m0 -55 c-3 -7 -5 -2 -5 12 0 14 2 19
5 13 2 -7 2 -19 0 -25z m5 -53 c-6 -34 -12 -32 -12 6 0 16 4 28 9 25 4 -3 6
-17 3 -31z m2114 10 c-8 -7 -12 -16 -8 -20 4 -5 2 -5 -5 -1 -16 9 -6 33 14 33
14 0 14 -1 -1 -12z m-1919 -25 c-1 -11 -5 -20 -9 -20 -4 0 -8 9 -8 20 0 11 4
20 9 20 6 0 9 -9 8 -20z m-200 -52 c-3 -7 -5 -2 -5 12 0 14 2 19 5 13 2 -7 2
-19 0 -25z m203 1 c0 -5 -4 -9 -10 -9 -5 0 -10 7 -10 16 0 8 5 12 10 9 6 -3
10 -10 10 -16z m1920 -20 c0 -4 -6 -9 -13 -12 -8 -3 -14 0 -14 7 0 7 6 13 14
13 7 0 13 -4 13 -8z m-2123 -46 c-3 -10 -5 -2 -5 17 0 19 2 27 5 18 2 -10 2
-26 0 -35z m198 26 c-10 -15 -25 -10 -19 6 4 8 10 12 15 9 5 -3 7 -10 4 -15z
m-2 -151 c3 -71 2 -128 -3 -128 -5 0 -10 33 -12 73 -3 76 1 192 6 186 2 -2 6
-61 9 -131z m-192 -68 c-1 -90 -3 -165 -6 -168 -3 -3 -5 73 -5 168 0 95 2 171
5 168 3 -3 6 -79 6 -168z m2119 59 c0 -4 -6 -9 -13 -12 -8 -3 -14 0 -14 7 0 7
6 13 14 13 7 0 13 -4 13 -8z m0 -33 c0 -3 -4 -8 -10 -11 -5 -3 -10 -1 -10 4 0
6 5 11 10 11 6 0 10 -2 10 -4z m-2117 -226 c3 -11 2 -22 -2 -24 -4 -3 -8 6 -9
20 -2 29 4 31 11 4z m-6 -62 c-3 -8 -6 -5 -6 6 -1 11 2 17 5 13 3 -3 4 -12 1
-19z m0 -40 c-3 -8 -6 -5 -6 6 -1 11 2 17 5 13 3 -3 4 -12 1 -19z m0 -40 c-3
-8 -6 -5 -6 6 -1 11 2 17 5 13 3 -3 4 -12 1 -19z m2115 -15 c-10 -4 -10 -8 0
-21 12 -15 11 -16 -4 -3 -19 14 -15 32 5 30 8 0 8 -2 -1 -6z m-2115 -25 c-3
-8 -6 -5 -6 6 -1 11 2 17 5 13 3 -3 4 -12 1 -19z m0 -40 c-3 -8 -6 -5 -6 6 -1
11 2 17 5 13 3 -3 4 -12 1 -19z m2270 -10 c-3 -8 -6 -5 -6 6 -1 11 2 17 5 13
3 -3 4 -12 1 -19z m-587 -348 c0 -5 -2 -10 -4 -10 -3 0 -8 5 -11 10 -3 6 -1
10 4 10 6 0 11 -4 11 -10z m-393 -182 c7 -6 14 -5 18 2 10 17 24 2 18 -20 -3
-11 -1 -20 4 -20 5 0 8 -20 7 -45 -1 -28 2 -45 10 -45 7 0 7 -3 1 -8 -7 -4
-11 -126 -11 -346 0 -305 -2 -340 -17 -351 -9 -6 -13 -15 -9 -19 4 -4 0 -6 -8
-4 -8 2 -14 -3 -12 -10 1 -7 -9 -17 -23 -24 -13 -6 -22 -14 -20 -18 2 -3 -5
-6 -15 -6 -11 1 -19 -3 -19 -8 1 -16 -26 -26 -74 -26 -47 0 -83 19 -69 36 4 5
-2 2 -12 -6 -11 -8 -17 -10 -13 -3 9 14 -28 37 -48 29 -9 -3 -12 0 -8 10 3 7
0 14 -5 14 -6 0 -11 8 -10 17 0 10 -3 32 -7 48 -4 17 -7 39 -7 50 1 11 -4 23
-11 27 -9 6 -9 8 2 8 8 0 4 8 -10 20 -13 10 -18 19 -11 20 6 0 12 -5 12 -11 0
-5 4 -8 9 -5 9 6 7 48 -4 65 -3 6 -2 11 3 11 9 0 7 83 -3 108 -2 7 -1 11 3 8
4 -2 8 4 8 15 0 11 -7 19 -18 19 -9 0 -19 4 -22 9 -4 5 2 7 13 4 27 -7 32 9
15 42 -11 21 -11 25 -1 16 11 -8 14 -5 14 19 0 16 -4 27 -8 25 -4 -3 -6 3 -4
12 2 10 4 18 5 18 1 0 3 17 4 38 1 20 -2 37 -6 37 -5 0 -4 9 2 19 5 11 7 22 2
25 -9 5 -8 53 1 62 4 4 3 12 0 18 -9 14 -11 66 -2 61 4 -3 9 4 12 16 5 17 3
18 -11 8 -9 -7 -3 1 13 17 l30 29 140 2 c77 0 145 -3 152 -9z m-347 -132 c0
-2 -7 -7 -16 -10 -8 -3 -12 -2 -9 4 6 10 25 14 25 6z m0 -85 c0 -5 -8 -15 -17
-22 -16 -12 -17 -12 -6 2 7 9 10 19 6 22 -3 4 -1 7 5 7 7 0 12 -4 12 -9z m-3
-74 c0 -8 -6 -14 -14 -14 -9 0 -10 4 -2 14 6 7 12 13 14 13 1 0 2 -6 2 -13z
m-137 -181 c0 -2 -7 -7 -16 -10 -8 -3 -12 -2 -9 4 6 10 25 14 25 6z m131 -53
c13 -16 12 -17 -3 -4 -17 13 -22 21 -14 21 2 0 10 -8 17 -17z m4 -43 c-3 -5
-1 -10 6 -10 7 0 10 -3 6 -6 -9 -9 -28 6 -22 17 4 5 8 9 11 9 3 0 2 -4 -1 -10z
m-135 -104 c0 -2 -7 -7 -16 -10 -8 -3 -12 -2 -9 4 6 10 25 14 25 6z m130 -62
c0 -8 -19 -13 -24 -6 -3 5 1 9 9 9 8 0 15 -2 15 -3z m543 -119 c-3 -9 -8 -14
-10 -11 -3 3 -2 9 2 15 9 16 15 13 8 -4z"/>
<path d="M3387 3303 c3 -7 9 -10 14 -7 14 8 11 21 -5 21 -8 0 -12 -6 -9 -14z"/>
<path d="M3390 3159 c0 -5 5 -7 10 -4 6 3 10 8 10 11 0 2 -4 4 -10 4 -5 0 -10
-5 -10 -11z"/>
<path d="M3390 2620 c0 -5 5 -10 10 -10 6 0 10 5 10 10 0 6 -4 10 -10 10 -5 0
-10 -4 -10 -10z"/>
<path d="M3387 2345 c3 -8 9 -12 14 -9 12 7 11 11 -5 17 -10 4 -13 1 -9 -8z"/>
<path d="M2310 1250 c-10 -10 -22 -34 -25 -52 -3 -18 -5 -191 -3 -383 4 -407
-1 -388 105 -437 l65 -31 42 22 c24 11 48 21 54 21 6 0 17 10 23 22 7 13 23
33 36 45 l23 22 0 366 c0 220 -4 374 -10 385 -15 28 -57 37 -178 39 -98 0
-115 -2 -132 -19z"/>
</g>
</svg>
